<?xml version="1.0" encoding="UTF-8"?>
<svg width="28px" height="12px" viewBox="0 0 28 12" version="1.1" xmlns="http://www.w3.org/2000/svg">
    <!-- Generator: Sketch 55.2 (78181) - https://sketchapp.com -->
    <title></title>
    <desc>Created with Sketch.</desc>
    <g id="BGS_v2" stroke="none" stroke-width="1" fill="none" fill-rule="evenodd">
        <g id="BGT-Login-Desktop-A" transform="translate(-255.000000, -315.000000)" fill="#FFFFFF" fill-rule="nonzero">
            <g id="Buy-miles" transform="translate(220.000000, 282.000000)">
                <g id="Group-5" transform="translate(25.000000, 17.000000)">
                    <path d="M19.2812279,17.4219098 C19.1406032,17.4687846 18.9531037,17.4687846 18.812479,17.5156595 C18.6249794,17.5625344 18.4843548,17.6094093 18.3437301,17.6562842 C18.2031054,17.7031591 18.0624808,17.7969089 17.8749812,17.8437838 L17.8281063,17.8437838 L17.7812314,17.8906586 L17.7343566,17.8906586 L17.6874817,17.9375335 L20.5468499,22.0625237 C20.5937247,22.1093986 20.6405996,22.1093986 20.6405996,22.1562735 C20.6405996,22.2031484 20.6405996,22.2500232 20.6874745,22.2968981 L20.6874745,22.4375228 C20.6405996,22.4843977 20.6405996,22.5312726 20.6874745,22.5781475 C20.6405996,22.6250224 20.5937247,22.6250224 20.5937247,22.6718972 C20.5937247,22.7187721 20.5937247,22.765647 20.5468499,22.8125219 C20.499975,22.8593968 20.4531001,22.8593968 20.4531001,22.8593968 C20.4062252,22.9062717 20.3593503,22.9062717 20.2656005,22.9531466 L16.4218597,24.3593932 L16.3281099,24.3593932 C16.3281099,24.4062681 16.3281099,24.4062681 16.281235,24.4062681 L16.1406104,24.4062681 C16.0937355,24.4062681 16.0468606,24.4062681 16.0468606,24.3593932 L15.9999857,24.3593932 C15.9531108,24.3593932 15.9062359,24.3593932 15.9062359,24.3125183 C15.859361,24.3125183 15.8124861,24.2656434 15.6718615,24.1718937 C15.5312368,24.1250188 15.3906121,24.031269 15.1562377,23.8906443 C14.9218633,23.7500197 14.7343637,23.6562699 14.5468642,23.5156452 C14.3593646,23.3750206 14.1718651,23.2812708 14.0312404,23.2343959 C14.0312404,23.2343959 13.9843655,23.2343959 13.9374906,23.187521 C13.8906157,23.187521 13.8437408,23.187521 13.7968659,23.1406461 C13.7499911,23.0937712 13.6562413,23.0937712 13.5624951,23.0937712 L12.9999928,23.0937712 C12.9062431,23.0937712 12.8124933,23.0937712 12.7187435,23.1406461 C12.5781189,23.187521 12.4843691,23.187521 12.4374942,23.2343959 C12.3437444,23.2812708 12.2031197,23.2812708 12.0624951,23.3281457 L12.7656184,24.1718937 C12.9999928,24.5000179 13.1874924,24.7812672 13.4218668,25.0156417 C13.6562413,25.296891 13.8437408,25.5312654 13.9843655,25.718765 C14.1249902,25.9531394 14.2187399,26.0468892 14.3124897,26.0937641 C14.3593646,26.1875139 14.4062395,26.2812636 14.4999893,26.3281385 L14.7812386,26.4687632 C14.8281135,26.5156381 14.9218633,26.562513 15.0624951,26.562513 C15.2031126,26.6093879 15.2968624,26.6093879 15.437487,26.6093879 C15.6249866,26.6093879 15.8124861,26.6093879 15.9999857,26.562513 C16.1874852,26.5156381 16.4218597,26.4687632 16.703109,26.4218883 C16.9374835,26.3750134 17.2187328,26.3281385 17.4999821,26.2343887 C17.7343566,26.140639 18.0624808,26.0468892 18.4374799,25.9531394 C19.1406032,25.718765 20.4062252,25.2500161 22.2812207,24.5468928 C24.1562162,23.8437694 26.0780867,23.1406461 27.9999571,22.3906479 C29.9218275,21.6875246 31.6561984,21.0312762 33.2030697,20.4687775 C34.7030661,19.9062788 35.4530643,19.6250295 35.4061894,19.6250295 C35.4530643,19.6250295 35.4061894,19.5781546 35.3593145,19.5312797 L35.2186899,19.3906551 C35.171815,19.3437802 35.0780652,19.2500304 34.9374405,19.1562806 L34.5155666,18.8750313 C34.4686917,18.8281564 34.4218168,18.8281564 34.3749419,18.7812815 C34.328067,18.7344066 34.2343172,18.6875317 34.1405674,18.6406569 C33.9999428,18.593782 33.906193,18.5469071 33.8124432,18.5000322 C33.6718186,18.4531573 33.5311939,18.4531573 33.3905692,18.4062824 L33.2499446,18.4062824 C33.2030697,18.4062824 33.1561948,18.4062824 33.1561948,18.3594075 L32.4061966,18.3594075 C32.2655719,18.4062824 32.0780724,18.4062824 31.8905728,18.4531573 C31.7030733,18.5000322 31.5155737,18.593782 31.3280741,18.6406569 C31.1405746,18.6875317 30.9062002,18.7812815 30.6718257,18.8281564 C30.3437015,18.9687811 29.9218275,19.1562806 29.4530786,19.2969053 C28.9843297,19.43753 28.5624557,19.5781546 28.1874566,19.7187793 C27.8124575,19.8594039 27.4843333,20.0000286 27.2499589,20.0937784 C26.9687095,20.2344031 26.8280849,20.2812779 26.8280849,20.2812779 L26.7343351,20.2812779 L26.6874602,20.3281528 L26.5937104,20.3281528 L26.5468355,20.2812779 L26.4530858,20.2812779 C26.4062109,20.2812779 26.359336,20.2812779 26.4062109,20.2344031 L20.9687238,17.6562842 C21.0155987,17.6562842 20.9687238,17.6562842 20.921849,17.6094093 C20.8280992,17.5625344 20.7343494,17.5625344 20.6405996,17.5156595 C20.5468499,17.4687846 20.4062252,17.4687846 20.2656005,17.4219098 L19.2812279,17.4219098 Z M19.656227,16.2500376 L19.7031019,16.2500376 C19.9374763,16.2500376 20.1249759,16.2500376 20.3593503,16.2969124 C20.5937247,16.3437873 20.7812243,16.3437873 20.921849,16.3906622 C21.0624736,16.4375371 21.1562234,16.484412 21.2968481,16.5312869 C21.3905978,16.5781618 21.4374727,16.6250367 21.4374727,16.6250367 L26.6874602,19.1094057 C26.8280849,19.0625308 27.0624593,18.9687811 27.3905835,18.8281564 C27.7187078,18.6875317 27.9999571,18.593782 28.3280813,18.4531573 C28.6562055,18.3594075 28.9843297,18.2656577 29.3593288,18.1250331 C29.6874531,17.9844084 30.0155773,17.8906586 30.2968266,17.7500376 C30.5780759,17.6562842 30.8124504,17.5625344 31.0468248,17.5156595 C31.2811993,17.4687846 31.4686988,17.3750349 31.7030733,17.32816 C31.9374477,17.2812851 32.1249472,17.2812851 32.3124468,17.2344102 C32.4530715,17.2344102 32.640571,17.2344102 32.8749455,17.2344102 C32.9218203,17.2344102 32.9686952,17.2344102 33.062445,17.2344102 C33.1093199,17.2344102 33.2030697,17.2344102 33.2499446,17.2344102 C33.2968195,17.2344102 33.3436943,17.2344102 33.4374441,17.2344102 C33.5311939,17.2812851 33.5780688,17.2812851 33.6249437,17.2812851 C33.8593181,17.32816 34.0468177,17.3750349 34.1874423,17.4219098 C34.328067,17.4687846 34.4686917,17.5625344 34.6093163,17.6094093 C34.749941,17.6562842 34.8436908,17.7031591 34.9374405,17.7500376 C34.9843154,17.7969089 35.0780652,17.8437838 35.1249401,17.8906586 C35.2655648,18.0312833 35.4530643,18.1250331 35.593689,18.2187829 C35.7343136,18.3594075 35.8749383,18.4531573 35.9686881,18.5469071 C36.0624379,18.6406569 36.1561876,18.7344066 36.2030625,18.7812815 C36.2499374,18.8281564 36.2968123,18.8750313 36.2968123,18.9219062 L37.3280598,20.1406533 L35.7811885,20.7031519 C35.6874388,20.7500268 34.8905657,21.078151 33.3436943,21.6406497 C31.796823,22.2031484 30.0624522,22.8593968 28.1874566,23.5625201 C26.2655862,24.2656434 24.4374656,24.9687668 22.6093449,25.6250152 C20.7812243,26.3281385 19.5156023,26.7968874 18.812479,27.0312618 C18.390605,27.1718865 18.0624808,27.2656363 17.7343566,27.3593861 C17.4062323,27.4531358 17.124983,27.5000107 16.8437337,27.5468856 C16.5624844,27.5937605 16.3281099,27.6406354 16.0937355,27.6875103 C15.859361,27.7343852 15.6718615,27.7343852 15.437487,27.7343852 C15.2968624,27.7343852 15.1562377,27.7343852 14.9687382,27.6875103 C14.7812386,27.6875103 14.593739,27.6406354 14.4531144,27.5937605 C14.3124897,27.5468856 14.1249902,27.4531358 13.9374906,27.3125112 C13.7031162,27.1718865 13.5624915,27.0312618 13.4218668,26.8437623 C13.3281171,26.7968874 13.1874924,26.6093879 12.9999928,26.3281385 C12.7656184,26.0937641 12.531244,25.8125148 12.2968695,25.4843905 C12.0624951,25.1562663 11.8281206,24.875017 11.6406211,24.5937677 C11.4062466,24.3125183 11.265622,24.1250188 11.1718722,24.031269 L10.2812493,22.8125219 L11.6406211,22.2500232 C11.8281206,22.2031484 11.9687453,22.1562735 12.10937,22.1093986 C12.2031197,22.0625237 12.3437444,22.0625237 12.4843691,22.0156488 C12.6249937,21.9687739 12.7656184,21.9687739 12.9062431,21.921899 C12.9999928,21.921899 13.1406175,21.921899 13.2812493,21.921899 C13.4218668,21.921899 13.6093664,21.921899 13.7499911,21.9687739 C13.8906157,22.0156488 14.0312404,22.0156488 14.1249902,22.0625237 C14.2187399,22.1093986 14.3124897,22.1093986 14.4062395,22.1562735 C14.4999893,22.2031484 14.5468642,22.2031484 14.593739,22.2500232 C14.7343637,22.2968981 14.8281135,22.343773 14.9687382,22.4375228 C15.1093628,22.5312726 15.2499875,22.6250224 15.437487,22.7187721 C15.5781117,22.8125219 15.7187364,22.9062717 15.859361,22.9531466 C15.9999857,23.0468963 16.1406104,23.1406461 16.281235,23.187521 L19.1874781,22.1093986 L16.7499839,18.593782 L15.9531108,17.5156595 L17.4062323,16.8125362 C17.546857,16.7187864 17.7343566,16.6250367 17.968731,16.5781618 C18.1562306,16.5312869 18.3437301,16.4375371 18.5312297,16.3906622 C18.7187292,16.3437873 18.9062288,16.3437873 19.1406032,16.2969124 C19.3281028,16.2500376 19.5156023,16.2500376 19.656227,16.2500376 Z" id=""></path>
                </g>
            </g>
        </g>
    </g>
</svg>
