<?xml version="1.0" encoding="UTF-8"?>
<svg id="Layer_1" data-name="Layer 1" xmlns="http://www.w3.org/2000/svg" xmlns:xlink="http://www.w3.org/1999/xlink" viewBox="0 0 360 180">
  <defs>
    <style>
      .cls-1 {
        fill: none;
      }

      .cls-2 {
        fill: url(#linear-gradient);
      }

      .cls-3 {
        letter-spacing: -.02em;
      }

      .cls-4, .cls-5 {
        fill: #36495a;
      }

      .cls-6 {
        fill: #31495c;
        font-family: AmericanSansMedium, 'AmericanSans Medium';
        font-size: 41.86px;
        letter-spacing: -.02em;
      }

      .cls-7 {
        fill: url(#linear-gradient-3);
      }

      .cls-8 {
        fill: url(#linear-gradient-4);
      }

      .cls-9 {
        fill: url(#linear-gradient-2);
      }

      .cls-5 {
        font-family: AmericanSans, AmericanSans;
        font-size: 7px;
      }
    </style>
    <linearGradient id="linear-gradient" x1="294.02" y1="98.01" x2="294.02" y2="170.93" gradientUnits="userSpaceOnUse">
      <stop offset="0" stop-color="#ed1c24"/>
      <stop offset=".15" stop-color="#e81b23"/>
      <stop offset=".3" stop-color="#dc1a21"/>
      <stop offset=".45" stop-color="#c7171d"/>
      <stop offset=".61" stop-color="#aa1418"/>
      <stop offset=".76" stop-color="#850f11"/>
      <stop offset=".81" stop-color="#780e0f"/>
    </linearGradient>
    <linearGradient id="linear-gradient-2" x1="260.82" y1="104.08" x2="287.43" y2="104.08" gradientUnits="userSpaceOnUse">
      <stop offset="0" stop-color="#69231d"/>
      <stop offset=".23" stop-color="#882820"/>
      <stop offset=".57" stop-color="#af2e25"/>
      <stop offset=".84" stop-color="#c83228"/>
      <stop offset="1" stop-color="#d1342a"/>
    </linearGradient>
    <linearGradient id="linear-gradient-3" x1="257.89" y1="100.19" x2="287.55" y2="82.37" gradientUnits="userSpaceOnUse">
      <stop offset=".1" stop-color="#e7ebee"/>
      <stop offset=".35" stop-color="#d4dbdf"/>
      <stop offset=".85" stop-color="#a4b3bb"/>
      <stop offset="1" stop-color="#96a7b0"/>
    </linearGradient>
    <linearGradient id="linear-gradient-4" x1="241.55" y1="85.18" x2="241.55" y2="34.8" gradientUnits="userSpaceOnUse">
      <stop offset="0" stop-color="#1c2f72"/>
      <stop offset=".04" stop-color="#19387a"/>
      <stop offset=".25" stop-color="#10619f"/>
      <stop offset=".46" stop-color="#0982bd"/>
      <stop offset=".66" stop-color="#0499d2"/>
      <stop offset=".84" stop-color="#01a8df"/>
      <stop offset="1" stop-color="#00ade4"/>
    </linearGradient>
  </defs>
  <g id="American_Airlines_Logo_w_Clear_Space" data-name="American Airlines Logo w/ Clear Space">
    <rect id="CLEAR_SPACE" data-name="CLEAR SPACE" class="cls-1" x="5.41" y="6.18" width="349.08" height="168.48"/>
    <g id="American_Airlines_Logo" data-name="American Airlines Logo">
      <g id="Flight_Symbol" data-name="Flight Symbol">
        <path id="Red_Gradient" data-name="Red Gradient" class="cls-2" d="m273.94,136.22c6.43,10.57,16.7,10.36,19.43,10.36h33.04l-38.98-47.33c-17.98.74-27.5,12.28-25.55,17.11l12.06,19.85Z"/>
        <path id="Beak_Shadow" data-name="Beak Shadow" class="cls-9" d="m261.88,116.37c-.05-.08-1.07-2.47-1.07-5.35,0-10.8,9.57-17,20.46-19.23l6.15,7.47c-17.98.74-27.5,12.28-25.55,17.11Z"/>
        <path id="Beak" class="cls-7" d="m276.92,81.24c-16.43,0-28.7,2.71-28.7,9.14,0,2.37.74,4.42,2.75,8.03l10.92,17.96c-.05-.08-1.07-2.47-1.07-5.35,0-10.8,9.57-17,20.46-19.23,3.16-.65,6.4-.96,9.57-.96,2.67,0,5.17.14,7.1.84-1.13-4.13-4.14-10.42-21.03-10.42Z"/>
        <path id="Blue_Gradient" data-name="Blue Gradient" class="cls-8" d="m233.69,70.04c4.52,7.41,6.19,9.26,16.95,9.27h20.55l-28.33-35.78c-6.26-7.73-9.86-9.15-15.6-9.27h-15.35l21.78,35.78Z"/>
      </g>
      <text class="cls-5" transform="translate(330.12 146.44)"><tspan class="cls-3" x="0" y="0">T</tspan><tspan x="3.23" y="0">M</tspan></text>
    </g>
  </g>
  <text class="cls-6" transform="translate(103.85 128.4)"><tspan x="0" y="0">Hotels</tspan></text>
  <path class="cls-4" d="m45.06,62.25h-5.56l-8.05,21.18-7.89-21.18h-5.56l-10.48,27.58h5l2.21-6.22h11.66l2.17,6.22h5.46l2.21-6.22h11.66l2.17,6.22h5.28l-10.28-27.58Zm-29.03,17.63l4.42-12.6h.16l4.43,12.6h-9.01Zm21.5,0l4.42-12.6h.16l4.42,12.6h-9.01Zm31.92-19.4h4.62v23.16c0,2.09.08,4.58.21,6.18h-3.69c-.37,0-.53-.12-.53-.53-.04-.49-.04-2.54-.04-2.54h-.17c-.65,1.23-2.29,3.48-6.18,3.48-7,0-8.02-5.94-8.02-9.58,0-6.88,4.09-11.46,10.68-11.46,1.84,0,2.78.29,3.12.41v-9.13Zm-9.01,19.93c0,3.24.65,6.27,4.3,6.27,2.42,0,4.71-2.09,4.71-6.88v-6.63c-.41-.12-1.32-.41-3.16-.41-3.8,0-5.85,2.58-5.85,7.65Zm15.87-10.8h5.08l5.07,14.81h.17l4.91-14.81h4.92l-7.66,20.21h-4.87l-7.62-20.21Zm29.42-.41c5.69,0,8.52,2.54,8.52,7.36v8.06c0,1.76.16,3.81.37,5.2h-3.85c-.66,0-.7-.4-.73-.9l-.13-1.68h-.16c-.61.95-2.33,3-6.01,3s-6.35-2.83-6.35-6.55c0-5.36,5.9-7.08,11.13-7.08h1.15v-.65c0-2.46-1.81-3.31-4.34-3.31s-4.51.85-5.08,1.14c-.2.08-.49.25-.69.25-.37,0-.33-.33-.37-.41-.04-.73-.13-2.49-.13-3.11.74-.28,3.56-1.31,6.67-1.31Zm-3.72,14.4c0,1.77,1.15,3.28,3.23,3.28,2.78,0,4.42-2.62,4.42-5.85v-1.48h-1.03c-4.46,0-6.63,1.39-6.63,4.05Zm16.29,6.22v-14.04c0-2.09-.12-4.62-.2-6.18h3.64c.37,0,.53.12.53.53,0,.49.04,2.54.04,2.54h.17c1.19-2.09,2.95-3.48,6.18-3.48,4.46,0,6.84,3.03,6.84,6.42v14.2h-4.63v-12.89c0-3.24-1.55-4.17-3.23-4.17-2.42,0-4.75,2.33-4.75,7.12v9.95h-4.58Zm22.43-6.71v-10.02h-2.79v-3.48h2.79v-4.46h4.61v4.46h4.84v3.48h-4.84v10.76c0,1.76.82,2.74,2.54,2.74,1.23,0,1.92-.37,2.3-.37.28,0,.41.16.41.57,0,0,.16,2.25.24,2.99-.46.17-1.6.45-3.24.45-5.16,0-6.86-2.87-6.86-7.12Zm19.67-13.91c5.69,0,8.51,2.54,8.51,7.36v8.06c0,1.76.16,3.81.37,5.2h-3.85c-.66,0-.7-.4-.74-.9l-.12-1.68h-.16c-.61.95-2.34,3-6.02,3s-6.34-2.83-6.34-6.55c0-5.36,5.89-7.08,11.14-7.08h1.14v-.65c0-2.46-1.8-3.31-4.34-3.31s-4.51.85-5.08,1.14c-.2.08-.49.25-.7.25-.37,0-.33-.33-.37-.41-.04-.73-.13-2.49-.13-3.11.74-.28,3.57-1.31,6.68-1.31Zm-3.73,14.4c0,1.77,1.15,3.28,3.23,3.28,2.79,0,4.42-2.62,4.42-5.85v-1.48h-1.02c-4.46,0-6.63,1.39-6.63,4.05Zm24.23,16.37c-5.81,0-8.76-2.29-8.76-6.18,0-2.78,2.21-4.13,3.6-4.58-.69-.25-2.21-.94-2.21-3.03,0-2.21,1.89-3.03,2.66-3.27-1.32-.41-3.6-2.13-3.6-5.94,0-4.22,3.23-7.77,8.96-7.77,1.18,0,2.21.16,3.31.41h6.8c0,.57-.04,1.63-.12,2.46-.09.9-.66.94-1.19.94h-1.8c.49.33,1.39,1.55,1.39,3.35,0,4.34-3.03,7.41-8.67,7.41-.78,0-1.68-.08-2.3-.2-.49.08-1.19.61-1.19,1.35,0,1.02.62,1.72,2.62,1.72h3.89c4.79,0,7.04,2.09,7.04,5.61,0,4.3-4.01,7.74-10.43,7.74Zm1.92-9.9h-3.07c-.37,0-.86,0-1.19-.04-.78.33-2.04,1.39-2.04,3.15,0,2.13,1.88,3.28,4.71,3.28,3.68,0,5.6-1.56,5.6-3.69,0-1.52-1.1-2.7-4.01-2.7Zm-1.48-17.6c-2.83,0-4.38,1.71-4.38,4.09,0,2.58,1.48,4.1,4.34,4.1,2.65,0,4.29-1.47,4.29-4.05s-1.56-4.13-4.25-4.13Zm29.71,5.4c0,.7-.12,2.46-.16,2.87h-12.98c0,3.31,2.09,5.93,6.26,5.93,2.21,0,3.94-.78,4.38-.98.29-.12.53-.29.74-.29s.33.08.36.45c.04.53.17,2.29.17,3.27-.78.29-3.23,1.11-6.1,1.11-7.17,0-10.52-3.77-10.52-10.48s3.44-10.56,9.21-10.56c6.67,0,8.64,4.82,8.64,8.67Zm-4.59-.25c0-.08.04-.33.04-.5,0-1.76-.82-4.58-4.14-4.58-3.68,0-4.37,3.43-4.37,5.07h8.47Z"/>
</svg>