<?xml version="1.0" encoding="UTF-8"?>
<svg width="23px" height="25px" viewBox="0 0 23 25" version="1.1" xmlns="http://www.w3.org/2000/svg">
    <!-- Generator: Sketch 55.2 (78181) - https://sketchapp.com -->
    <title>gift copy 6</title>
    <desc>Created with Sketch.</desc>
    <g id="BGS_v2" stroke="none" stroke-width="1" fill="none" fill-rule="evenodd">
        <g id="BGT-Login-Desktop-A" transform="translate(-255.000000, -476.000000)" fill="#FFFFFF" fill-rule="nonzero">
            <g id="Gift-miles" transform="translate(220.000000, 447.000000)">
                <g id="Group-4" transform="translate(25.000000, 20.000000)">
                    <g id="gift-copy-6" transform="translate(10.000000, 9.000000)">
                        <path d="M21.4349209,5.15756836 L16.2903977,5.15756836 C16.7905543,4.61044922 17.0972678,3.87822266 17.0972678,3.07421875 L17.0972678,3.06367187 C17.0972197,1.37441406 15.7451347,0 14.0831659,0 L14.0244652,0 C12.96377,0 12.0299873,0.560302734 11.4926504,1.40454102 C10.9553615,0.560302734 10.0215789,0 8.96088362,0 L8.90218295,0 C7.24021412,0 5.88812912,1.37441406 5.88812912,3.0637207 L5.88812912,3.07426758 C5.88812912,3.87827148 6.19484254,4.61049805 6.69499919,5.15761719 L1.56507909,5.15761719 C0.702054294,5.15761719 0,5.87128906 0,6.74848633 L0,9.33178711 C0,9.60253906 0.215924328,9.82197266 0.482239005,9.82197266 L1.03893467,9.82197266 L1.03893467,23.3833008 C1.03893467,24.2747559 1.75242167,25 2.62942511,25 L20.3705749,25 C21.2475783,25 21.9610653,24.2747559 21.9610653,23.3833008 L21.9610653,9.82197266 L22.517761,9.82197266 C22.7841237,9.82197266 23,9.60249023 23,9.33178711 L23,6.74848633 C23,5.87124023 22.2979457,5.15756836 21.4349209,5.15756836 Z M11.9749374,3.0637207 C11.9749374,1.91499023 12.8943572,0.980371094 14.0244652,0.980371094 L14.0831659,0.980371094 C15.213274,0.980371094 16.1327417,1.91494141 16.1327417,3.0637207 L16.1327417,3.07426758 C16.1327417,4.22299805 15.213322,5.15761719 14.0831659,5.15761719 L13.3604559,5.15761719 L11.9749374,5.15761719 L11.9749374,3.0637207 Z M12.8782169,6.13793945 L12.8782169,8.84155273 L10.1218312,8.84155273 L10.1218312,6.13793945 L12.8782169,6.13793945 L12.8782169,6.13793945 Z M6.85260713,3.0637207 C6.85260713,1.91499023 7.77202685,0.980371094 8.90218295,0.980371094 L8.96088362,0.980371094 C10.0909917,0.980371094 11.0104594,1.91494141 11.0104594,3.0637207 L11.0104594,5.15756836 L9.63954411,5.15756836 L8.90218295,5.15756836 C7.77207489,5.15756836 6.85260713,4.22299805 6.85260713,3.07426758 L6.85260713,3.0637207 L6.85260713,3.0637207 Z M0.96447801,8.84160156 L0.96447801,6.74848633 C0.96447801,6.41186523 1.23391506,6.13798828 1.56507909,6.13798828 L9.15730511,6.13798828 L9.15730511,8.84160156 L0.96447801,8.84160156 Z M22.035522,8.84155273 L20.3842173,8.84155273 C20.1178546,8.84155273 19.9019783,9.06103516 19.9019783,9.33173828 C19.9019783,9.60249023 20.1179026,9.82192383 20.3842173,9.82192383 L20.9965873,9.82192383 L20.9965873,23.3833008 C20.9965873,23.7341797 20.7157656,24.0195801 20.3706229,24.0195801 L2.62942511,24.0195801 C2.2842344,24.0195801 2.00346072,23.7341309 2.00346072,23.3833008 L2.00346072,9.82197266 L9.83385199,9.82197266 L9.83385199,18.0259766 C9.83385199,18.2967285 10.0497763,18.5161621 10.316091,18.5161621 C10.5824537,18.5161621 10.79833,18.2966797 10.79833,18.0259766 L10.79833,9.82197266 L12.20167,9.82197266 L12.20167,19.6960937 C12.20167,19.9668457 12.4175943,20.1862793 12.683909,20.1862793 C12.9502717,20.1862793 13.166148,19.9667969 13.166148,19.6960937 L13.166148,9.82197266 L16.8565566,9.82197266 C17.1229193,9.82197266 17.3387956,9.60249023 17.3387956,9.33178711 C17.3387956,9.06103516 17.1228712,8.84160156 16.8565566,8.84160156 L13.8426469,8.84160156 L13.8426469,6.13798828 L21.4349209,6.13798828 C21.7660849,6.13798828 22.035522,6.41186523 22.035522,6.74848633 L22.035522,8.84155273 Z" id="Shape"></path>
                        <circle id="Oval" cx="9.5" cy="19.5" r="1"></circle>
                        <circle id="Oval" cx="12.5" cy="21.5" r="1"></circle>
                        <circle id="Oval" cx="18.5" cy="9.5" r="1"></circle>
                    </g>
                </g>
            </g>
        </g>
    </g>
</svg>
