<?xml version="1.0" encoding="UTF-8"?>
<svg width="26px" height="22px" viewBox="0 0 26 22" version="1.1" xmlns="http://www.w3.org/2000/svg">
    <!-- Generator: Sketch 55.2 (78181) - https://sketchapp.com -->
    <title>sharing copy</title>
    <desc>Created with Sketch.</desc>
    <g id="BGS_v2" stroke="none" stroke-width="1" fill="none" fill-rule="evenodd">
        <g id="BGT-Login-Desktop-A" transform="translate(-254.000000, -641.000000)" fill="#FFFFFF" fill-rule="nonzero">
            <g id="Transfer-miles" transform="translate(220.000000, 612.000000)">
                <g id="sharing-copy" transform="translate(34.000000, 29.000000)">
                    <path d="M25.5,16 L25.5,14.6954235 C25.5,14.4218832 25.3823864,14.1588638 25.1727273,13.9852709 C24.0272727,13.0173593 22.7948864,12.3755918 22.5392045,12.2493425 C22.5085227,12.2335613 22.4931818,12.2072593 22.4931818,12.1704366 L22.4931818,10.3345608 C22.7181818,10.1820095 22.8664773,9.91899001 22.8664773,9.61914782 L22.8664773,7.7148869 C22.8664773,6.76801683 22.1198864,6 21.1994318,6 L21,6 L20.8005682,6 C19.8801136,6 19.1335227,6.76801683 19.1335227,7.7148869 L19.1335227,9.61914782 C19.1335227,9.91899001 19.2818182,10.1767491 19.5068182,10.3345608 L19.5068182,12.1704366 C19.5068182,12.2019989 19.4914773,12.2335613 19.4607955,12.2493425 C19.2102273,12.3755918 17.9727273,13.0173593 16.8272727,13.9852709 C16.6227273,14.1588638 16.5,14.4218832 16.5,14.6954235 L16.5,16" id="XMLID_1866_"></path>
                    <path d="M5.82529578,4.21557805 C7.75047489,2.17718579 10.3262685,1.03369745 13.0780481,1.00055286 C15.8031631,0.967408271 18.3842897,2.02803514 20.3414662,3.98356592 L19.2535534,3.99461412 C18.9869081,4.00013822 18.7735918,4.22662624 18.7735918,4.50283116 C18.7789247,4.77903607 18.992241,5 19.2588863,5 L19.2642192,5 L21.5200385,4.97237951 C21.7866838,4.96685541 22,4.74036738 22,4.46416247 L21.9733355,2.12746891 C21.9680026,1.85126399 21.7493534,1.63582416 21.4827081,1.63030006 C21.2160628,1.63582416 21.0027466,1.86231219 21.0027466,2.1385171 L21.0134124,3.27095724 C18.874917,1.12760712 16.0538097,-0.0324535138 13.0673823,0.000691075718 C10.0542903,0.0338356653 7.2385159,1.28228187 5.1373509,3.51401757 C4.95069918,3.71288511 4.95603209,4.02775871 5.1426838,4.22110215 C5.32933552,4.41996968 5.63864407,4.41444558 5.82529578,4.21557805 Z" id="Shape"></path>
                    <path d="M3.98658763,19.8618785 L3.97592182,18.7292818 C6.09308554,20.8453039 8.86086381,22 11.7992951,22 L11.9326177,22 C14.9457097,21.9668508 17.7614841,20.718232 19.8626491,18.4861878 C20.0493008,18.2872928 20.0439679,17.9723757 19.8573162,17.7790055 C19.6653316,17.5856354 19.3613559,17.5911602 19.1747042,17.7845304 C17.2495251,19.8232044 14.6737315,20.9668508 11.9219519,21 C9.19150399,21.0331492 6.61571034,19.9723757 4.6585338,18.0165746 L5.74644664,18.0055249 C6.01309195,18 6.22640819,17.7734807 6.22640819,17.4972376 C6.22107529,17.2209945 6.00775904,17 5.74111374,17 L5.73578083,17 L3.47996155,17.0276243 C3.3519718,17.0276243 3.22931496,17.0828729 3.13865556,17.1767956 C3.04799615,17.2707182 3,17.3977901 3,17.5303867 L3.02666453,19.8674033 C3.03199744,20.1436464 3.24531368,20.3646409 3.51195899,20.3646409 L3.51729189,20.3646409 C3.77860429,20.3646409 3.99192054,20.1381215 3.98658763,19.8618785 Z" id="Shape"></path>
                    <path d="M3.94845361,10.8260452 C3.94845361,10.6674676 3.87113402,10.5141759 3.74226804,10.4296012 C3.63917526,10.3555983 3.57731959,10.239308 3.57731959,10.1124459 L3.57731959,8.19894282 C3.57731959,7.51177319 4.1185567,6.95675156 4.78865979,6.95675156 L5.19072165,6.95675156 C5.86082474,6.95675156 6.40206186,7.51177319 6.40206186,8.19894282 L6.40206186,10.1124459 C6.40206186,10.239308 6.34020619,10.3608842 6.2371134,10.4296012 C6.10824742,10.5194618 6.03092784,10.6674676 6.03092784,10.8260452 L6.03092784,12.6708313 C6.03092784,12.8822681 6.14948454,13.0831331 6.34020619,13.1782797 C6.57216495,13.2945699 7.78350515,13.9235944 8.90206186,14.8644882 C9,14.949063 9.06185567,15.075925 9.06185567,15.208073 L9.06185567,16.5189813 C9.06185567,16.7832773 9.27319588,17 9.53092784,17 C9.78865979,17 10,16.7832773 10,16.5189813 L10,15.208073 C10,14.7851994 9.81958763,14.3887554 9.5,14.1244594 C8.51030928,13.289284 7.44845361,12.6866891 6.96907216,12.4329649 L6.96907216,11.0533397 C7.20618557,10.8049015 7.34536082,10.4718885 7.34536082,10.1124459 L7.34536082,8.19894282 C7.34536082,6.98318116 6.3814433,6 5.20103093,6 L4.79896907,6 C3.61340206,6 2.65463918,6.98846708 2.65463918,8.19894282 L2.65463918,10.1124459 C2.65463918,10.4666026 2.79381443,10.8049015 3.03092784,11.0533397 L3.03092784,12.4329649 C2.55670103,12.6866891 1.49484536,13.289284 0.5,14.1244594 C0.180412371,14.3940413 0,14.7851994 0,15.208073 L0,16.5189813 C0,16.7832773 0.211340206,17 0.469072165,17 C0.726804124,17 0.93814433,16.7832773 0.93814433,16.5189813 L0.93814433,15.208073 C0.93814433,15.0706391 0.994845361,14.949063 1.09793814,14.8644882 C2.21649485,13.9235944 3.42783505,13.2945699 3.65979381,13.1782797 C3.84536082,13.0831331 3.96907216,12.8875541 3.96907216,12.6708313 L3.96907216,10.8260452 L3.94845361,10.8260452 L3.94845361,10.8260452 Z" id="Shape"></path>
                    <path d="M25.5309278,17 C25.7886598,17 26,16.7832773 26,16.5189813 L26,15.208073 C26,14.7851994 25.8195876,14.3887554 25.5,14.1244594 C24.5103093,13.289284 23.4484536,12.6866891 22.9690722,12.4329649 L22.9690722,11.0533397 C23.2061856,10.8049015 23.3453608,10.4718885 23.3453608,10.1124459 L23.3453608,8.19894282 C23.3453608,6.98318116 22.3814433,6 21.2010309,6 L20.7989691,6 C19.6134021,6 18.6546392,6.98846708 18.6546392,8.19894282 L18.6546392,10.1124459 C18.6546392,10.4666026 18.7938144,10.8049015 19.0309278,11.0533397 L19.0309278,12.4329649 C18.556701,12.6866891 17.4948454,13.289284 16.5,14.1244594 C16.1804124,14.3940413 16,14.7851994 16,15.208073 L16,16.5189813 C16,16.7832773 16.2113402,17 16.4690722,17 C16.7268041,17 16.9381443,16.7832773 16.9381443,16.5189813 L16.9381443,15.208073 C16.9381443,15.0706391 16.9948454,14.949063 17.0979381,14.8644882 C18.2164948,13.9235944 19.4278351,13.2945699 19.6597938,13.1782797 C19.8453608,13.0831331 19.9690722,12.8875541 19.9690722,12.6708313 L19.9690722,10.8260452 C19.9690722,10.6674676 19.8917526,10.5141759 19.7628866,10.4296012 C19.6597938,10.3555983 19.5979381,10.239308 19.5979381,10.1124459 L19.5979381,8.19894282 C19.5979381,7.51177319 20.1391753,6.95675156 20.8092784,6.95675156 L21.2113402,6.95675156 C21.8814433,6.95675156 22.4226804,7.51177319 22.4226804,8.19894282 L22.4226804,10.1124459 C22.4226804,10.239308 22.3608247,10.3608842 22.257732,10.4296012 C22.128866,10.5194618 22.0515464,10.6674676 22.0515464,10.8260452 L22.0515464,12.6708313 C22.0515464,12.8822681 22.1701031,13.0831331 22.3608247,13.1782797 C22.5927835,13.2945699 23.8041237,13.9235944 24.9226804,14.8644882 C25.0206186,14.949063 25.0824742,15.075925 25.0824742,15.208073 L25.0824742,16.5189813 C25.0670103,16.7832773 25.2731959,17 25.5309278,17 Z" id="Shape"></path>
                </g>
            </g>
        </g>
    </g>
</svg>
